<svg id="Layer_1" height="512" viewBox="0 0 512 512" width="512" xmlns="http://www.w3.org/2000/svg" xmlns:xlink="http://www.w3.org/1999/xlink" data-name="Layer 1"><linearGradient id="linear-gradient" gradientUnits="userSpaceOnUse" x1="256" x2="256" y1="443" y2="100.013"><stop offset=".322" stop-color="#a163f5"/><stop offset=".466" stop-color="#b074ee"/><stop offset=".752" stop-color="#d8a1dd"/><stop offset=".898" stop-color="#efbad3"/></linearGradient><path d="m482 434.354h-35.1v-31.722a10.012 10.012 0 0 0 -10-10h-173.522v-71.86a22.9 22.9 0 0 0 16.6-22.089v-79.431a51.808 51.808 0 0 0 10.252-5.324v150.393a14.355 14.355 0 0 0 4.764 10.69 14.083 14.083 0 0 0 9.377 3.587 13.842 13.842 0 0 0 1.547-.086c24.26-2.711 39.788-14.8 47.472-36.963 6.3-18.176 6.806-41.343 5.623-70.536-1.531-37.757 31.41-55.613 45.643-61.538a12.65 12.65 0 0 0 7.169-7.808 12.893 12.893 0 0 0 -1.317-10.763l-82.156-129.57a13.631 13.631 0 0 0 -7.108-7.087 156.7 156.7 0 0 0 -35.727-10.866 15.662 15.662 0 0 0 -2.609-12.767 15.12 15.12 0 0 0 -12.281-6.237h-24.827a15.248 15.248 0 0 0 -12.694 6.823 15.584 15.584 0 0 0 -2.136 12.517 190.575 190.575 0 0 0 -37.4 10.49 13.6 13.6 0 0 0 -7.034 6.349l-82.389 130.423a12.853 12.853 0 0 0 -1.269 10.689 12.649 12.649 0 0 0 7.169 7.807c14.233 5.925 47.174 23.782 45.642 61.538-1.183 29.193-.679 52.36 5.623 70.536 7.688 22.161 23.212 34.251 47.472 36.963a13.842 13.842 0 0 0 1.547.086 14.082 14.082 0 0 0 9.377-3.587 14.355 14.355 0 0 0 4.764-10.69v-151.721a58.3 58.3 0 0 0 10.306 5.667v80.412a22.9 22.9 0 0 0 16.6 22.089v71.86h-174.619a10.011 10.011 0 0 0 -10 10v31.722h-36.759a20 20 0 0 0 -20 20v27.269a6 6 0 0 0 6 6h480a6 6 0 0 0 6-6v-27.265a20 20 0 0 0 -20-20zm-214.022-149.608h-21.2v-6.538h21.2zm0-18.538h-21.2v-25.843a34.826 34.826 0 0 0 10.612 1.666q.5 0 1-.015a34.865 34.865 0 0 0 9.584-1.629zm0-38.759a23.081 23.081 0 0 1 -9.93 2.572 23.346 23.346 0 0 1 -11.27-2.577v-5.533a63.949 63.949 0 0 0 21.2.469zm36.608 139.137a2 2 0 0 1 -1.591-.52 2.3 2.3 0 0 1 -.765-1.745v-18.793h36.484c-6.469 12.19-17.161 19.162-34.128 21.058zm38.766-33.058h-41.122v-22.865h44.675a119.288 119.288 0 0 1 -3.553 22.865zm4.07-34.865h-45.192v-24.186h44.9c.316 8.683.439 16.746.292 24.186zm-.2-36.186h-44.992v-21.545h50.448a65.353 65.353 0 0 0 -5.458 21.545zm19.68-42.139a76.72 76.72 0 0 0 -7.257 8.594h-57.415v-22.865h82.764a93.181 93.181 0 0 0 -18.094 14.271zm31.405-26.271h-90.144a82.253 82.253 0 0 0 8.4-22.866h67.24zm-70.615-111.367 7.321 11.545h-8.675q.655-5.687 1.354-11.545zm-3.045 26.4c.108-.947.216-1.9.324-2.855h17.651l11.468 18.087h-31.178c.581-5.026 1.154-10.086 1.735-15.232zm-3.147 27.236h40.2l14.5 22.864h-57.655c1.072-7.736 2.041-15.311 2.955-22.864zm-20.223-76.777c5.841 1.853 10.926 3.879 15.261 5.727a1.74 1.74 0 0 1 .979 1.843c-1.565 12.322-2.9 23.967-4.183 35.237h-16.257zm-22.7 13.677a47.989 47.989 0 0 1 2.163-14.261l1.247-4.01q3.916.628 7.541 1.432l-4.51 45.969h-14.035a19.489 19.489 0 0 0 7.595-18.878zm-35.488-35.375a3.209 3.209 0 0 1 2.711-1.484h24.827a3.213 3.213 0 0 1 2.618 1.352 3.6 3.6 0 0 1 .532 3.226l-4.5 14.457a59.952 59.952 0 0 0 -2.508 13.025 19.037 19.037 0 0 0 -15.073.19 59.648 59.648 0 0 0 -4.149-15.847l-4.788-11.509a3.591 3.591 0 0 1 .33-3.41zm23.759 48.751a7.394 7.394 0 1 1 -7.39-7.637 7.526 7.526 0 0 1 7.39 7.637zm-31.314-31.476.938 2.254a47.767 47.767 0 0 1 3.674 18.452l.035 8.688a20.177 20.177 0 0 0 -.112 2.082 19.68 19.68 0 0 0 7.864 15.754h-15.7l-4.5-45.818q3.775-.776 7.801-1.412zm-37.551 10.23a179.863 179.863 0 0 1 17.972-5.982l4.219 42.982h-18.908l-4.314-35.149a1.735 1.735 0 0 1 1.031-1.851zm-11.224 17.3 1.421 11.583h-8.738zm-14.9 23.583h17.791l2.22 18.087h-31.433zm-19 30.087h40.488l2.743 22.348c.012.174.033.343.046.517h-57.72zm-22.026 34.864h67.06a73.445 73.445 0 0 0 9.126 22.866h-90.629zm81.639 193.12a2.3 2.3 0 0 1 -.765 1.745 1.986 1.986 0 0 1 -1.591.52c-16.967-1.9-27.659-8.868-34.129-21.058h36.485zm0-30.793h-41.121a119.283 119.283 0 0 1 -3.554-22.865h44.675zm0-34.865h-45.192c-.14-7.064-.038-14.682.242-22.866h44.95zm0-34.866h-44.882a65.561 65.561 0 0 0 -5.566-22.865h50.448zm0-34.865h-57.412a76.837 76.837 0 0 0 -7.258-8.594 93.152 93.152 0 0 0 -18.094-14.271h82.764zm10.95-32.987c-8.89-9.587-14.349-23.167-15.373-38.24-.008-.108-.018-.216-.031-.324l-2.394-19.507 26.9 5.462-2.805 4.418a6 6 0 1 0 10.131 6.433l5.618-8.849a8.381 8.381 0 0 0 -5.368-12.709l-36.017-7.313-1.345-10.95h109.237c-.423 3.726-.847 7.417-1.274 11.1l-34.881 8.5a8.5 8.5 0 0 0 -4.881 13.186l5.191 7.3a6 6 0 0 0 9.781-6.952l-2.207-3.106 25.478-6.205c-.967 7.868-1.993 15.765-3.152 23.869-6.327 44.219-35.156 48.993-47.257 48.993-13.966-.004-26.191-5.226-35.351-15.105zm23.356 102.738v-1.937h21.2v1.937a10.6 10.6 0 1 1 -21.2 0zm243.222 176.941h-468v-21.269a8 8 0 0 1 8-8h69.667a6 6 0 0 0 0-12h-20.908v-29.722h356.141v29.722h-293.233a6 6 0 1 0 0 12h340.333a8 8 0 0 1 8 8z" fill="url(#linear-gradient)"/></svg>